<svg version="1.1" id="Layer_1" xmlns="http://www.w3.org/2000/svg" xmlns:xlink="http://www.w3.org/1999/xlink" x="0px" y="0px"
	 width="100%" viewBox="0 0 1024 1024" enable-background="new 0 0 1024 1024" xml:space="preserve">
<path fill="#000000" opacity="1.000000" stroke="none" 
	d="
M320.966187,868.572510 
	C320.904388,852.117310 320.746887,836.117126 320.959381,820.121826 
	C321.020416,815.527161 319.528778,814.085510 314.950439,814.115906 
	C300.995422,814.208557 287.024261,814.936646 273.231323,811.367432 
	C241.010193,803.029541 215.975174,773.886108 212.532562,740.730835 
	C211.511292,730.895264 211.873581,721.092346 211.922791,711.282288 
	C211.946716,706.509644 210.462128,704.930908 205.655243,704.969788 
	C181.825455,705.162476 157.993301,705.062927 134.161972,705.056152 
	C127.384659,705.054260 120.887520,703.935608 115.126312,700.061096 
	C104.938774,693.209595 100.485451,680.904846 103.824448,668.877930 
	C107.040062,657.295288 117.962242,648.886353 130.750717,648.793579 
	C155.580704,648.613464 180.412842,648.737549 205.244095,648.722168 
	C211.762207,648.718140 211.793488,648.695618 211.795227,642.006042 
	C211.803467,610.508667 211.677261,579.010437 211.903564,547.514709 
	C211.941208,542.277039 210.129562,541.044373 205.262650,541.122253 
	C189.934692,541.367676 174.599014,541.304016 159.268311,541.155334 
	C144.797958,541.015076 133.571411,532.232422 130.770279,519.183960 
	C126.827011,500.815094 139.684875,485.151672 159.210770,484.877289 
	C174.539810,484.661865 189.874207,484.832855 205.206192,484.815216 
	C211.772995,484.807648 211.798050,484.788055 211.799286,478.085999 
	C211.805054,446.755280 211.801086,415.424530 211.787781,384.093811 
	C211.784897,377.311890 211.760529,377.300934 204.814041,377.297028 
	C180.149445,377.283142 155.483368,377.432251 130.820892,377.198883 
	C119.600304,377.092743 110.883751,371.932709 105.809395,361.778015 
	C100.865883,351.885193 101.641930,342.020599 107.925270,332.905945 
	C114.062469,324.003357 123.209274,320.998474 133.558624,320.974823 
	C157.223221,320.920746 180.888000,320.957916 204.552689,320.936584 
	C211.778534,320.930084 211.779510,320.898132 211.796204,313.799377 
	C211.828644,299.997528 211.207031,286.181641 214.838425,272.607147 
	C223.359344,240.755234 251.654770,216.370056 284.377441,212.547302 
	C294.372437,211.379654 304.348511,211.847046 314.326324,211.887833 
	C319.265778,211.908005 321.082764,210.431396 320.990753,205.316681 
	C320.718018,190.156219 320.785522,174.986572 320.931824,159.822556 
	C321.073944,145.094086 329.423340,133.992050 342.386139,130.850128 
	C360.269684,126.515549 376.997375,139.465225 377.240204,158.100845 
	C377.446442,173.930115 377.430450,189.766724 377.179626,205.594818 
	C377.102936,210.434296 378.769897,211.907608 383.502808,211.884140 
	C415.332703,211.726334 447.164215,211.709015 478.993927,211.880081 
	C483.704224,211.905411 484.936951,210.250336 484.906647,205.791382 
	C484.740234,181.294540 484.733246,156.795547 484.852081,132.298187 
	C484.937683,114.649170 497.624084,102.076668 514.349548,102.740822 
	C529.742859,103.352081 541.116455,115.818108 541.190308,132.510651 
	C541.296509,156.508148 541.197449,180.506516 541.202087,204.504517 
	C541.203491,211.762207 541.227844,211.793686 548.374207,211.795013 
	C579.371582,211.800812 610.369019,211.796326 641.366394,211.772583 
	C648.619202,211.767029 648.694580,211.677139 648.705017,204.579681 
	C648.727783,189.081009 648.576904,173.580490 648.768555,158.084091 
	C648.954773,143.027420 659.522888,131.800507 674.752136,130.036331 
	C687.364868,128.575256 700.214355,137.609955 703.738953,150.514206 
	C704.749756,154.214966 705.143066,158.018082 705.129395,161.875732 
	C705.077454,176.541000 705.214478,191.208313 705.004578,205.870880 
	C704.939758,210.396545 706.444641,211.964722 711.044006,211.918869 
	C724.839539,211.781311 738.650940,211.102219 752.281006,214.604904 
	C788.366150,223.878113 814.169373,256.847687 814.207336,294.157715 
	C814.213928,300.657135 814.195129,307.156586 814.199280,313.656006 
	C814.203918,320.911652 814.209534,320.934235 821.257080,320.938690 
	C845.088440,320.953735 868.920166,320.872070 892.750977,320.987793 
	C905.406738,321.049255 915.613159,325.765137 920.910706,337.934723 
	C929.112305,356.775543 915.778931,377.015137 894.946045,377.216919 
	C870.450378,377.454193 845.950684,377.287750 821.452759,377.295807 
	C814.187805,377.298218 814.195496,377.297302 814.195984,384.455261 
	C814.198242,415.785980 814.301697,447.117401 814.087830,478.446655 
	C814.053162,483.534210 815.582031,485.021790 820.617798,484.925842 
	C835.944153,484.633911 851.280762,484.726501 866.611633,484.865204 
	C881.367920,484.998657 893.022095,494.162231 895.311584,507.135956 
	C898.605713,525.803040 886.200134,540.869629 867.010193,541.146423 
	C851.681213,541.367554 836.346619,541.185669 821.014648,541.217285 
	C814.398987,541.230896 814.202026,541.446655 814.200684,547.901367 
	C814.194031,579.398743 814.307495,610.896851 814.087036,642.392639 
	C814.051208,647.511902 815.601929,648.880127 820.617432,648.831177 
	C845.113098,648.591919 869.612732,648.635437 894.110168,648.755310 
	C911.377686,648.839844 923.841370,661.519226 923.290649,678.114075 
	C922.781372,693.459167 910.281494,704.946960 893.563660,705.046753 
	C870.066406,705.186951 846.567810,705.084106 823.069763,705.081970 
	C814.179321,705.081177 814.244019,705.077515 814.179626,713.754883 
	C814.084717,726.550110 814.829041,739.346924 811.523865,751.993958 
	C802.842468,785.213379 775.222534,809.385986 741.098999,813.513611 
	C732.102417,814.601868 723.129700,814.002991 714.147583,814.194092 
	C704.657837,814.395996 705.107666,812.981934 705.111938,823.506653 
	C705.117737,837.838745 705.267212,852.171631 705.152344,866.502625 
	C705.032349,881.472107 696.020386,892.792480 682.465942,895.377380 
	C664.592712,898.785767 648.963501,886.135376 648.745544,867.820496 
	C648.555176,851.824097 648.555420,835.821533 648.790161,819.826416 
	C648.855225,815.390381 647.422363,814.124146 643.078613,814.144531 
	C610.915283,814.295715 578.750732,814.288940 546.587280,814.155945 
	C542.401184,814.138611 541.154114,815.586914 541.179260,819.657227 
	C541.332581,844.487610 541.356384,869.319580 541.266785,894.150391 
	C541.205383,911.172974 528.866089,923.490051 512.356506,923.304749 
	C496.703522,923.129089 484.853149,910.561829 484.792542,893.790527 
	C484.704620,869.459534 484.787598,845.127991 484.787231,820.796692 
	C484.787109,814.227051 484.769745,814.218933 478.128235,814.218872 
	C446.797516,814.218567 415.466766,814.219360 384.136047,814.228821 
	C377.320862,814.230835 377.297089,814.247864 377.295624,821.256531 
	C377.292511,836.088623 377.321411,850.920654 377.328705,865.752747 
	C377.337067,882.825806 366.816040,895.024109 350.564392,896.021912 
	C339.161957,896.721924 323.666138,889.856262 321.267914,870.475403 
	C321.207855,869.990234 321.097870,869.511230 320.966187,868.572510 
M488.500000,757.976196 
	C568.483948,757.977600 648.467957,757.997375 728.451904,757.966919 
	C747.217773,757.959839 757.993530,747.315674 757.998840,728.594727 
	C758.039551,584.789551 758.023804,440.984375 758.001526,297.179199 
	C758.000854,292.853455 757.891296,288.523254 755.979797,284.458954 
	C750.437683,272.675018 740.976318,267.976105 728.215637,267.984711 
	C584.577087,268.081604 440.938507,268.047791 297.299896,268.062653 
	C294.140564,268.062988 290.982452,268.080475 287.874023,268.903381 
	C275.268219,272.240723 268.065033,282.622620 268.063782,297.670532 
	C268.051727,439.476166 268.049011,581.281799 268.050781,723.087402 
	C268.050812,726.419067 268.148010,729.750549 268.175629,733.082336 
	C268.214203,737.738953 269.787445,741.891357 272.333710,745.710938 
	C278.335480,754.714233 286.874634,758.082336 297.537201,758.056702 
	C360.857819,757.904358 424.179016,757.978271 488.500000,757.976196 
z"/>
<path fill="#000000" opacity="1.000000" stroke="none" 
	d="
M538.000122,642.622742 
	C575.478516,642.622620 612.456848,642.603333 649.435242,642.631775 
	C666.024414,642.644470 677.355652,654.254761 677.359985,671.128296 
	C677.363892,686.396545 665.230408,698.313599 649.477173,698.317139 
	C558.363770,698.337585 467.250397,698.336548 376.136993,698.290283 
	C362.222412,698.283264 350.445526,687.967102 348.778473,674.638733 
	C346.949402,660.015320 355.010925,647.443604 368.682098,643.421753 
	C371.307526,642.649353 373.935394,642.651489 376.594238,642.650818 
	C430.229523,642.638062 483.864777,642.631104 538.000122,642.622742 
z"/>
<path fill="#000000" opacity="1.000000" stroke="none" 
	d="
M565.674805,363.240295 
	C554.944946,406.091827 544.352539,448.523773 533.748291,490.952728 
	C527.298523,516.758850 520.965942,542.595398 514.307068,568.347473 
	C511.475647,579.297546 504.114044,586.146362 493.028534,588.534058 
	C482.527374,590.795898 473.515900,587.561584 466.383850,579.724426 
	C459.711700,572.392761 458.018585,563.439636 460.319366,554.035461 
	C468.776825,519.466064 477.502686,484.962341 486.103058,450.427826 
	C494.341705,417.345795 502.850220,384.326965 510.667938,351.145538 
	C516.065491,328.236237 540.250793,321.724701 555.324951,333.026459 
	C565.391602,340.573761 567.936340,350.909210 565.674805,363.240295 
z"/>
<path fill="#000000" opacity="1.000000" stroke="none" 
	d="
M424.987091,421.987305 
	C414.854340,432.148254 404.939880,442.027863 395.100922,451.982056 
	C389.038574,458.115387 389.081818,458.296387 394.995148,464.236450 
	C407.573029,476.871185 420.301178,489.360046 432.706512,502.161835 
	C448.324280,518.278809 441.746857,544.114990 420.682831,549.622559 
	C410.819977,552.201294 401.602875,550.278259 394.287201,543.055359 
	C372.352448,521.398743 350.539337,499.615143 328.933075,477.631134 
	C318.289520,466.801514 318.599487,449.310638 329.413940,438.357483 
	C350.365448,417.137268 371.343475,395.937469 392.641327,375.066803 
	C409.343231,358.699890 435.402435,365.764252 440.620514,387.869690 
	C442.823669,397.202728 440.662109,405.735504 434.049133,412.877991 
	C431.221161,415.932343 428.181000,418.790253 424.987091,421.987305 
z"/>
<path fill="#000000" opacity="1.000000" stroke="none" 
	d="
M659.702515,401.297333 
	C671.902405,413.624756 683.897217,425.665161 695.794434,437.801270 
	C707.986023,450.237610 707.955383,466.875336 695.710388,479.155792 
	C674.881897,500.044647 654.008667,520.889038 633.116821,541.714661 
	C621.526306,553.268433 604.019470,553.559082 592.817200,542.471436 
	C581.831238,531.597900 581.779541,514.010742 593.060242,502.461853 
	C605.984863,489.229980 619.094055,476.173401 632.345276,463.268921 
	C635.877808,459.828827 636.692017,457.654938 632.672668,453.765015 
	C619.502625,441.018829 606.808411,427.782654 593.793213,414.874054 
	C585.276611,406.427246 582.412659,396.442017 586.121094,385.177124 
	C589.862366,373.812561 598.391113,367.501373 610.211487,366.269257 
	C618.138550,365.442993 625.476929,367.673065 631.332703,373.338348 
	C640.791138,382.489075 650.088989,391.805725 659.702515,401.297333 
z"/>
</svg>